<?xml version="1.0" ?><svg viewBox="0 0 32 32" xmlns="http://www.w3.org/2000/svg"><defs><style>.cls-1{fill:none;stroke:#000;stroke-miterlimit:10;stroke-width:2px;}</style></defs><title/><g data-name="3-Home" id="_3-Home"><path class="cls-1" d="M29.8,30H2.2a.2.2,0,0,1-.2-.2V16.08a.2.2,0,0,1,.06-.14l13.8-13.8a.19.19,0,0,1,.28,0l13.8,13.8a.2.2,0,0,1,.06.14V29.8A.2.2,0,0,1,29.8,30Z"/><path class="cls-1" d="M12.2,20h7.6a.2.2,0,0,1,.2.2V30a0,0,0,0,1,0,0H12a0,0,0,0,1,0,0V20.2A.2.2,0,0,1,12.2,20Z"/></g></svg>
